<?xml version="1.0" encoding="utf-8"?>
<!-- Generator: Adobe Illustrator 27.5.0, SVG Export Plug-In . SVG Version: 6.00 Build 0)  -->
<svg version="1.1" id="Layer_1" xmlns="http://www.w3.org/2000/svg" xmlns:xlink="http://www.w3.org/1999/xlink" x="0px" y="0px"
	 viewBox="0 0 384 384" style="enable-background:new 0 0 384 384;" xml:space="preserve">
<path d="M120.1,92.9c-1.6-25.4,5.9-47,25.1-63.7c13.4-11.5,29.1-17.4,46.8-17.3c21.5,0.1,39.7,8.3,54,24.4
	c14.2,16,19.4,35.1,17.9,56.6c9.1,0,17.7-0.1,26.3,0c18.1,0.3,33.3,14.5,34.7,32.5c0.7,8.5,1,17,1.4,25.5c2,40.9,3.9,81.9,5.8,122.9
	c0.9,20.1,2,40.2,2.7,60.3c0.8,21.5-15,37.9-36.6,37.9c-70.8,0.1-141.5,0.1-212.3,0c-21.5,0-37.5-16.5-36.6-37.9
	c1.8-42.6,4-85.1,5.9-127.7c1.1-23.7,2.1-47.4,3.3-71.2c0.2-5,0.4-10.1,1.5-14.9c3.5-15.7,17.8-27.1,33.8-27.3
	C102.4,92.8,110.9,92.9,120.1,92.9L120.1,92.9z M192.1,348c35.3,0,70.5,0,105.8,0c8.2,0,13.1-5.1,12.9-13.2
	c-0.1-4.1-0.3-8.2-0.5-12.4c-1.9-40.6-3.8-81.2-5.7-121.7c-1.1-23.9-2.2-47.7-3.4-71.5c-0.5-8.6-5.3-12.8-13.9-12.8
	c-18.4,0.1-36.8,0.2-55.1,0.2c-45.3,0.1-90.5,0.2-135.8,0.3c-8.3,0-12.9,4.1-13.4,12.4c-0.6,9.9-0.9,19.7-1.4,29.6
	c-2.7,58.2-5.5,116.4-8.2,174.6c-0.5,9.8,4.1,14.5,14.1,14.5C122.3,348,157.2,348,192.1,348L192.1,348z M239.9,92.8
	c1.7-21.9-5-39.6-24.3-50.5c-17.6-10-35.4-8.8-51.8,3c-16.1,11.6-21.3,28.1-19.5,47.5L239.9,92.8L239.9,92.8z"/>
<path d="M192.2,213.8c-33.7,0-62.6-22.8-70.3-55.5c-1.5-6.5,0.4-11.7,5.5-14.6c4.7-2.6,11.1-2,14.5,2c1.8,2.2,3,5.1,3.8,7.9
	c5.1,18.1,16.6,30.2,34.7,34.9c18.2,4.7,34.1-0.3,47.2-13.8c6.2-6.4,9.9-14.3,11.9-23c1.4-6,5.7-9.4,11.4-9.6
	c5.7-0.2,10.5,2.9,11.9,8.3c0.6,2.3,0.6,5,0,7.3C255.2,191,226.3,213.8,192.2,213.8L192.2,213.8z"/>
</svg>
