<?xml version="1.0" encoding="UTF-8"?>
<svg xmlns="http://www.w3.org/2000/svg" xmlns:xlink="http://www.w3.org/1999/xlink" viewBox="0 0 547.1 455.28">
  <defs>
    <style>
      .cls-1, .cls-2, .cls-3, .cls-4, .cls-5, .cls-6, .cls-7 {
        fill: none;
      }

      .cls-1, .cls-2, .cls-3, .cls-4, .cls-6, .cls-7 {
        stroke-miterlimit: 10;
      }

      .cls-1, .cls-2, .cls-3, .cls-7 {
        stroke-width: 3px;
      }

      .cls-1, .cls-4 {
        stroke: #58595b;
      }

      .cls-1, .cls-4, .cls-6, .cls-7 {
        stroke-linecap: round;
      }

      .cls-2 {
        stroke: #665c5f;
      }

      .cls-3 {
        stroke: #231f20;
      }

      .cls-8 {
        fill: #665c5f;
      }

      .cls-4, .cls-6 {
        stroke-width: 1.5px;
      }

      .cls-9 {
        fill: #231f20;
        font-family: XenaraRg-Regular, Xenara;
        font-size: 100.76px;
      }

      .cls-10 {
        clip-path: url(#clippath);
      }

      .cls-6, .cls-7 {
        stroke: #a5a7aa;
      }

      .cls-11 {
        fill: #e19eff;
      }
    </style>
    <clipPath id="clippath">
      <rect class="cls-5" x="388.82" y="32.16" width="9.19" height="19.2"/>
    </clipPath>
  </defs>
  <g id="Layer_1" data-name="Layer 1">
    <g id="path">
      <g id="Under5">
        <circle id="Under5-5" class="cls-3" cx="521.49" cy="105.54" r="7.05"/>
        <circle id="under5" class="cls-2" cx="521.49" cy="105.54" r="5.95"/>
      </g>
      <g id="Under4">
        <circle id="Under4-4" class="cls-3" cx="489.42" cy="105.54" r="7.05"/>
        <circle id="under4" class="cls-2" cx="489.42" cy="105.69" r="5.95"/>
      </g>
      <g id="Under3">
        <circle id="Under3-3" class="cls-3" cx="457.34" cy="105.54" r="7.05"/>
        <circle id="under_3" data-name="under 3" class="cls-2" cx="457.34" cy="105.69" r="5.95"/>
      </g>
      <g id="Under2">
        <circle id="Under2-2" class="cls-3" cx="425.42" cy="105.54" r="7.05"/>
        <circle id="Under2-2" data-name="Under2" class="cls-2" cx="425.34" cy="105.54" r="5.95"/>
      </g>
      <g id="Under1">
        <circle id="Under1-1" class="cls-3" cx="393.34" cy="105.54" r="7.05"/>
        <circle id="under1" class="cls-2" cx="393.34" cy="105.69" r="5.95"/>
      </g>
      <g id="Top5">
        <circle id="Top5-5" class="cls-3" cx="521.49" cy="15.54" r="7.05"/>
        <circle id="Top5-2" data-name="Top5" class="cls-2" cx="521.49" cy="15.54" r="5.95"/>
      </g>
      <g id="Top4">
        <circle id="Top4-4" class="cls-3" cx="489.42" cy="15.54" r="7.05"/>
        <circle id="Top4-2" data-name="Top4" class="cls-2" cx="489.49" cy="15.54" r="5.95"/>
      </g>
      <g id="Top3">
        <circle id="Top3-3" class="cls-3" cx="457.34" cy="15.54" r="7.05"/>
        <circle id="Top3-2" data-name="Top3" class="cls-2" cx="457.49" cy="15.54" r="5.95"/>
      </g>
      <g id="Top2">
        <circle id="Top2-2" class="cls-3" cx="425.42" cy="15.54" r="7.05"/>
        <circle id="Top2-2" data-name="Top2" class="cls-2" cx="425.49" cy="15.54" r="5.95"/>
      </g>
      <g id="Top1">
        <circle id="Top1-1" class="cls-3" cx="393.49" cy="15.54" r="7.05"/>
        <circle id="top1" class="cls-2" cx="393.49" cy="15.54" r="5.95"/>
      </g>
      <line class="cls-4" x1="540.79" y1="51.71" x2="546.35" y2="50.81"/>
      <line class="cls-6" x1="540.24" y1="41.65" x2="544" y2="44.72"/>
      <path id="Lisse2" class="cls-1" d="m395.22,15.73c2.78-1.35,21.05,82.33,29.65,90.52,8.85,8.42,24.23-93.77,32.08-91.55s21.17,90.35,32.23,90.82c11.05.48,14.16-87.58,32.23-90.82,18.07-3.24,9.56,18.98,18.07,26.13"/>
      <path id="Lisse1" class="cls-7" d="m394.93,15.54c-2.18-5.9-7.51,85.54,0,90,7.02,4.16,23.34-103.45,32.07-90,12.63,19.46,22.05,93.89,30.34,90,8.29-3.89,13.77-97.05,33.66-90,19.89,7.05,14.37,89.28,32.07,90,17.71.72-2.15-49.93,16.4-53.64"/>
    </g>
    <text class="cls-9" transform="translate(0 87.36)"><tspan x="0" y="0">SkoHubben</tspan></text>
    <g id="BokstaverFarge">
      <path class="cls-11" d="m27.81,53.13c-13.81,0-20.66-6.45-20.66-19.45S14,14.54,27.71,14.54h20.66c3.73,0,5.44,1.61,5.44,4.64,0,3.22-1.71,4.84-5.44,4.84h-22.47c-6.05,0-9.07,3.33-9.07,9.98s3.02,9.77,9.17,9.77h16.22c9.67,0,14.51,4.23,14.51,12.9,0,21.26-10.68,31.84-32.25,31.84h-10.48c-3.43,0-5.24-1.41-5.24-4.33,0-3.43,1.81-5.04,5.24-5.04h11.79c14.41,0,21.67-7.15,21.67-21.46,0-3.02-1.61-4.53-4.84-4.53h-14.81Z"/>
      <path class="cls-11" d="m76.27,54.64h8.46l18.54-18.04c1.51-1.31,2.42-1.41,3.43-1.41,2.52,0,4.64,2.12,4.64,4.64,0,1.71-.91,2.82-2.22,4.03l-16.53,15.42,18.24,21.26c1.01,1.21,1.31,2.32,1.41,3.33,0,2.62-2.22,4.64-4.94,4.64-1.01,0-2.12-.6-3.02-1.61l-19.55-22.98h-8.46v19.85c0,3.12-1.61,4.74-4.74,4.74s-4.64-1.61-4.64-4.74V17.06c0-3.12,1.51-4.74,4.64-4.74s4.74,1.61,4.74,4.74v37.59Z"/>
      <path class="cls-11" d="m151.04,35.2c11.99,0,17.94,5.95,17.94,17.94v18.24c0,11.39-5.95,17.13-17.94,17.13h-12.29c-11.99,0-17.84-5.74-17.84-17.13v-18.24c0-11.99,5.84-17.94,17.84-17.94h12.29Zm1.11,43.94c4.94,0,7.46-2.22,7.46-6.65v-20.46c0-5.04-2.52-7.46-7.46-7.46h-14.51c-4.94,0-7.36,2.42-7.36,7.46v20.46c0,4.43,2.42,6.65,7.36,6.65h14.51Z"/>
      <path class="cls-11" d="m230.84,83.77c0,3.12-1.51,4.74-4.64,4.74s-4.74-1.61-4.74-4.74v-27.91h-31.54v27.91c0,3.12-1.51,4.74-4.64,4.74s-4.74-1.61-4.74-4.74V19.27c0-3.12,1.51-4.74,4.74-4.74s4.64,1.61,4.64,4.74v27.21h31.54v-27.21c0-3.12,1.61-4.74,4.74-4.74s4.64,1.61,4.64,4.74v64.49Z"/>
      <path class="cls-11" d="m288.78,88.5h-31.64c-9.77,0-14.61-4.94-14.61-14.81v-33.86c0-3.12,1.51-4.64,4.64-4.64s4.74,1.51,4.74,4.64v33.86c0,3.63,1.81,5.44,5.24,5.44h22.27v-39.3c0-3.12,1.51-4.64,4.64-4.64s4.74,1.51,4.74,4.64v48.67Z"/>
      <path class="cls-11" d="m338.05,35.2c6.75,0,10.08,3.22,10.08,9.77v17.84c0,17.13-7.36,25.7-22.17,25.7h-25.9V17.06c0-3.12,1.51-4.74,4.64-4.74s4.74,1.61,4.74,4.74v18.14h28.62Zm-28.62,43.94h16.73c8.36,0,12.6-5.04,12.6-15.22v-19.35h-29.32v34.56Z"/>
      <path class="cls-11" d="m397.3,35.2c6.75,0,10.08,3.22,10.08,9.77v17.84c0,17.13-7.36,25.7-22.17,25.7h-25.9V17.06c0-3.12,1.51-4.74,4.63-4.74s4.74,1.61,4.74,4.74v18.14h28.62Zm-28.62,43.94h16.73c8.36,0,12.6-5.04,12.6-15.22v-19.35h-29.32v34.56Z"/>
      <path class="cls-11" d="m461.28,35.2c2.52,0,4.64,2.12,4.64,4.64v20.86c0,3.12-1.51,4.64-4.64,4.64h-33.35v5.84c0,5.24,3.22,7.96,9.77,7.96h23.58c3.12,0,4.64,1.51,4.64,4.64s-1.51,4.74-4.64,4.74h-26.4c-10.88,0-16.32-5.44-16.32-16.53v-32.15c0-2.52,2.12-4.64,4.63-4.64h38.09Zm-4.74,21.67v-12.29h-28.62v12.29h28.62Z"/>
      <path class="cls-11" d="m477.2,35.2h32.75c9.67,0,14.61,4.84,14.61,14.71v33.86c0,3.12-1.51,4.74-4.64,4.74s-4.74-1.61-4.74-4.74v-33.86c0-3.53-1.81-5.34-5.24-5.34h-23.38v39.2c0,3.12-1.61,4.74-4.74,4.74s-4.63-1.61-4.63-4.74v-48.57Z"/>
    </g>
  </g>
  <g id="Mask">
    <g class="cls-10">
      <path class="cls-11" d="m397.3,35.2c6.75,0,10.08,3.22,10.08,9.77v17.84c0,17.13-7.36,25.7-22.17,25.7h-25.9V17.06c0-3.12,1.51-4.74,4.63-4.74s4.74,1.61,4.74,4.74v18.14h28.62Zm-28.62,43.94h16.73c8.36,0,12.6-5.04,12.6-15.22v-19.35h-29.32v34.56Z"/>
    </g>
    <g id="E_mask">
      <rect class="cls-11" x="443.14" y="79.13" width="9.68" height="9.37"/>
      <rect class="cls-11" x="442.05" y="40.76" width="3.05" height="3.81"/>
      <rect class="cls-11" x="442.24" y="79.13" width=".91" height="9.37"/>
      <path class="cls-11" d="m461.28,35.2h-16.18v9.37h11.44v12.29h-28.62v-12.29h3.37v-9.37h-8.1c-2.52,0-4.63,2.12-4.63,4.64v32.15c0,10.35,4.75,15.78,14.24,16.45v-10c-3.25-1.12-4.87-3.55-4.87-7.25v-5.84h33.35c3.12,0,4.64-1.51,4.64-4.64v-20.86c0-2.52-2.12-4.64-4.64-4.64Z"/>
    </g>
    <g id="N_mask">
      <path class="cls-11" d="m497.69,35.2h-20.49v48.57c0,3.12,1.51,4.74,4.63,4.74s4.74-1.61,4.74-4.74v-39.2h11.12v-9.37Z"/>
      <path class="cls-11" d="m512.42,35.33v9.67c1.81.72,2.77,2.36,2.77,4.91v33.86c0,3.12,1.51,4.74,4.74,4.74s4.64-1.61,4.64-4.74v-33.86c0-8.99-4.11-13.79-12.15-14.58Z"/>
    </g>
    <path id="Top5-3" data-name="Top5" class="cls-8" d="m521.75,19.96c-.14,0-.27.03-.4.03-2.46-.08-4.39-2.14-4.31-4.6.08-2.4,2.06-4.31,4.45-4.31,0,0,.01,0,.02,0v-.49s.34,0,.34,0h5.21s-.08-.1-.13-.15c-1.36-1.45-3.21-2.29-5.2-2.36-4.13-.14-7.56,3.1-7.7,7.2-.14,4.11,3.1,7.56,7.2,7.7.08,0,.17,0,.25,0,.11,0,.23-.01.34-.02l-.08-3.01Z"/>
    <path id="Top4-3" data-name="Top4" class="cls-8" d="m489.42,19.99s-.05,0-.07,0c-2.46-.08-4.39-2.14-4.31-4.6.08-2.4,2.06-4.31,4.45-4.31.05,0,.1,0,.15,0,1.19.04,2.29.54,3.1,1.41.62.66,1.01,1.48,1.15,2.35l3.03.12c-.13-1.69-.81-3.27-1.99-4.52-1.36-1.45-3.21-2.29-5.2-2.36-4.15-.14-7.56,3.1-7.7,7.2-.14,4.11,3.1,7.56,7.2,7.7.06,0,.12,0,.17,0v-3.01Z"/>
    <path id="Top3-3" data-name="Top3" class="cls-8" d="m457.63,19.97c-.1,0-.19.02-.29.02-2.46-.08-4.39-2.14-4.31-4.6.08-2.4,2.06-4.31,4.45-4.31.05,0,.1,0,.15,0,1.19.04,2.29.54,3.1,1.41.81.87,1.24,2,1.2,3.19,0,.27-.05.54-.11.8h3.05c.03-.23.05-.46.06-.7.07-1.99-.65-3.89-2.01-5.34-1.36-1.45-3.21-2.29-5.2-2.36-4.13-.14-7.56,3.1-7.7,7.2-.14,4.11,3.1,7.56,7.2,7.7.08,0,.17,0,.25,0,.09,0,.18-.01.26-.01l-.12-3.01Z"/>
    <path id="Top2-3" data-name="Top2" class="cls-8" d="m425.68,19.97c-.06,0-.13.02-.19.02-2.46,0-4.45-2-4.45-4.45s2-4.45,4.45-4.45,4.45,2,4.45,4.45c0,.2-.03.39-.06.58h3.03c.02-.19.03-.39.03-.58,0-4.11-3.34-7.45-7.45-7.45s-7.45,3.34-7.45,7.45,3.34,7.45,7.45,7.45c.11,0,.23-.01.34-.02l-.15-3Z"/>
    <path id="Top1-2" data-name="Top1" class="cls-8" d="m395.29,19.59c-.6.27-1.25.42-1.95.4-2.46-.08-4.39-2.14-4.31-4.6.08-2.4,2.06-4.31,4.45-4.31.05,0,.1,0,.15,0,1.19.04,2.29.54,3.1,1.41.81.87,1.24,2,1.2,3.19-.01.31-.05.62-.13.91l2.8,1.12c.19-.61.31-1.26.33-1.93.07-1.99-.65-3.89-2.01-5.34-1.36-1.45-3.21-2.29-5.2-2.36-4.15-.14-7.56,3.1-7.7,7.2-.14,4.11,3.1,7.56,7.2,7.7.08,0,.17,0,.25,0,.62,0,1.22-.08,1.8-.23v-3.18Z"/>
    <path id="Under5-2" data-name="Under5" class="cls-8" d="m526.93,100.44c-.98-1.05-2.22-1.77-3.59-2.12v3.17c.52.24.99.58,1.4,1.01.81.87,1.24,2,1.2,3.19-.02.55-.15,1.07-.36,1.55h3.16c.11-.47.18-.96.19-1.45.07-1.99-.65-3.89-2.01-5.34Z"/>
    <path id="Under4-2" data-name="Under4" class="cls-8" d="m493.86,105.69s.01.1,0,.14c-.04,1.19-.54,2.29-1.41,3.1-.87.81-2.03,1.23-3.19,1.2-1.19-.04-2.29-.54-3.11-1.41s-1.24-2-1.2-3.19c.04-1.19.54-2.29,1.41-3.1.83-.78,1.91-1.2,3.04-1.2.05,0,.1,0,.15,0,.15,0,.3.04.45.06v-3.03c-.12,0-.24-.03-.36-.03-2-.08-3.89.65-5.34,2.01s-2.29,3.21-2.36,5.2c-.07,1.99.65,3.89,2.01,5.34,1.36,1.45,3.21,2.29,5.2,2.36.08,0,.17,0,.25,0,1.9,0,3.7-.71,5.09-2.01,1.45-1.36,2.29-3.21,2.36-5.2,0-.08,0-.16,0-.24h-3Z"/>
    <path id="Under3-2" data-name="Under3" class="cls-8" d="m461.54,104.27c.15.45.25.92.25,1.42,0,2.46-2,4.45-4.45,4.45s-4.45-2-4.45-4.45,2-4.45,4.45-4.45v-3c-4.11,0-7.45,3.34-7.45,7.45s3.34,7.45,7.45,7.45,7.45-3.34,7.45-7.45c0-.49-.05-.96-.14-1.42h-3.11Z"/>
    <path id="Under2-3" data-name="Under2" class="cls-8" d="m429.78,105.62c0,.46-.07.93-.23,1.38-.81,2.32-3.35,3.55-5.67,2.74s-3.55-3.35-2.74-5.67,3.35-3.55,5.67-2.74c.33.11.62.27.9.45l1-2.88c-.3-.15-.6-.29-.92-.4-3.88-1.35-8.14.71-9.49,4.59s.71,8.14,4.59,9.49,8.14-.71,9.49-4.59c.16-.45.26-.9.33-1.35l-2.94-1.02Z"/>
    <path id="Under_1" data-name="Under 1" class="cls-8" d="m400.64,104.25l-2.88,1.81c-.19,2.28-2.09,4.08-4.42,4.08-2.46,0-4.45-2-4.45-4.45s2-4.45,4.45-4.45c.5,0,1,.08,1.46.25.26.09.51.21.74.35l.56-3.04c-.11-.04-.21-.1-.32-.14-.79-.27-1.61-.41-2.45-.41-4.11,0-7.45,3.34-7.45,7.45s3.34,7.45,7.45,7.45,7.45-3.34,7.45-7.45c0-.23-.01-.45-.03-.68-.02-.26-.07-.51-.12-.76Z"/>
  </g>
</svg>